<svg width="97" height="84" viewBox="0 0 97 84" fill="none" xmlns="http://www.w3.org/2000/svg">
<g clip-path="url(#clip0_1_103)">
<path d="M95.6941 28.7411C95.808 29.1971 95.9147 29.6555 96.0142 30.1161H62.1487V28.7411H95.6941Z" fill="#E6E6E6"/>
<path d="M94.6147 25.1165C94.0695 23.5379 93.4337 21.9938 92.7108 20.4922C92.4884 20.0292 92.2574 19.5709 92.0178 19.1172C91.9785 19.0393 91.9364 18.9614 91.8944 18.8836V29.1165H94.8208V25.7254L94.6147 25.1165Z" fill="#E6E6E6"/>
<path d="M92.7107 20.4922H91.8943V19.1172H92.0178C92.2578 19.5704 92.4888 20.0288 92.7107 20.4922Z" fill="#CCCCCC"/>
<path d="M94.6147 25.1165H91.8943V26.4915H94.8208V25.7254L94.6147 25.1165Z" fill="#CCCCCC"/>
<path d="M90.3097 17.2426H87.3839V29.1166H90.3097V17.2426Z" fill="#E6E6E6"/>
<path d="M90.3097 19.1174H87.3839V20.4923H90.3097V19.1174Z" fill="#CCCCCC"/>
<path d="M90.3097 25.1169H87.3839V26.4918H90.3097V25.1169Z" fill="#CCCCCC"/>
<path d="M76.9667 17.1735H66.4706C66.3088 17.1737 66.1537 17.2397 66.0394 17.357C65.925 17.4743 65.8606 17.6333 65.8604 17.7991V28.5603C65.8606 28.6215 65.8692 28.6824 65.8861 28.7411C65.9242 28.8697 66.0015 28.9823 66.1068 29.0624C66.212 29.1425 66.3395 29.1858 66.4706 29.186H76.9667C77.0977 29.1858 77.2253 29.1425 77.3305 29.0624C77.4357 28.9823 77.5131 28.8697 77.5511 28.7411C77.568 28.6824 77.5767 28.6215 77.5769 28.5603V17.7991C77.5767 17.6333 77.5123 17.4743 77.3979 17.357C77.2835 17.2397 77.1284 17.1737 76.9667 17.1735Z" fill="#E6E6E6"/>
<path d="M76.2207 17.9381H67.2164C67.0546 17.9384 66.8995 18.0044 66.7851 18.1217C66.6708 18.239 66.6064 18.3979 66.6061 18.5638V27.7956C66.6064 27.9615 66.6708 28.1205 66.7851 28.2378C66.8995 28.355 67.0546 28.421 67.2164 28.4213H76.2207C76.3825 28.421 76.5376 28.355 76.652 28.2378C76.7664 28.1205 76.8307 27.9615 76.831 27.7956V18.5638C76.8307 18.3979 76.7664 18.239 76.652 18.1217C76.5376 18.0044 76.3825 17.9384 76.2207 17.9381Z" fill="white"/>
<path d="M74.6505 19.5482H68.7868C68.625 19.5484 68.4699 19.6144 68.3555 19.7317C68.2411 19.849 68.1768 20.008 68.1765 20.1738V26.1856C68.1768 26.3515 68.2411 26.5105 68.3555 26.6278C68.4699 26.745 68.625 26.811 68.7868 26.8113H74.6505C74.8121 26.8104 74.9668 26.7442 75.0811 26.6271C75.1953 26.5099 75.2599 26.3513 75.2607 26.1856V20.1738C75.2605 20.008 75.1961 19.849 75.0817 19.7317C74.9673 19.6144 74.8123 19.5484 74.6505 19.5482Z" fill="#CCCCCC"/>
<path d="M74.2889 25.1253L73.0504 22.9259C73.0266 22.8836 72.9924 22.8485 72.9511 22.8241C72.9099 22.7997 72.8631 22.7869 72.8155 22.7869C72.7679 22.7869 72.7211 22.7997 72.6799 22.8241C72.6387 22.8485 72.6044 22.8836 72.5806 22.9259L71.6763 24.5319L70.4902 22.4259C70.4664 22.3836 70.4322 22.3485 70.3909 22.3241C70.3497 22.2997 70.3029 22.2869 70.2553 22.2869C70.2077 22.2869 70.161 22.2997 70.1197 22.3241C70.0785 22.3485 70.0443 22.3836 70.0205 22.4259L68.7819 24.6253L67.3086 27.2418H70.1503L69.8687 27.7417H75.7624L74.2889 25.1253Z" fill="white"/>
<path d="M73.8518 21.7422C74.3231 21.7422 74.7051 21.3505 74.7051 20.8673C74.7051 20.3841 74.3231 19.9923 73.8518 19.9923C73.3805 19.9923 72.9984 20.3841 72.9984 20.8673C72.9984 21.3505 73.3805 21.7422 73.8518 21.7422Z" fill="white"/>
<path d="M96.9892 38.4567C96.9797 37.9173 96.9588 37.3806 96.9268 36.8467C96.9132 36.5909 96.897 36.3365 96.8766 36.082H91.1512C90.9894 36.0823 90.8344 36.1483 90.72 36.2656C90.6056 36.3828 90.5412 36.5418 90.541 36.7077V47.4689C90.5406 47.5181 90.5466 47.5672 90.5586 47.6149C90.5906 47.7514 90.6665 47.8729 90.7739 47.9598C90.8814 48.0468 91.0143 48.0943 91.1512 48.0945H96.4291C96.4562 47.936 96.482 47.7748 96.505 47.6149C96.5199 47.5203 96.5349 47.4244 96.5485 47.3299C96.581 47.1032 96.6122 46.8766 96.6406 46.65C96.6814 46.3413 96.718 46.0313 96.7505 45.7199C96.8698 44.6034 96.9467 43.4749 96.981 42.3344V42.333C96.9932 41.9034 96.9995 41.4719 97 41.0386V39.3702C97 39.0643 96.9973 38.7598 96.9892 38.4567Z" fill="#E6E6E6"/>
<path d="M96.9892 38.4567C96.9797 37.9173 96.9589 37.3806 96.9268 36.8467H91.8971C91.7353 36.847 91.5802 36.913 91.4658 37.0303C91.3514 37.1475 91.2871 37.3065 91.2868 37.4724V46.7042C91.2871 46.8701 91.3514 47.0291 91.4658 47.1464C91.5802 47.2636 91.7353 47.3296 91.8971 47.3299H96.5485C96.581 47.1033 96.6122 46.8766 96.6406 46.65C96.6814 46.3414 96.718 46.0313 96.7505 45.7199C96.8698 44.6034 96.9467 43.4749 96.9811 42.3344V42.333C96.9932 41.9034 96.9996 41.4719 97 41.0386V39.3702C97 39.0643 96.9973 38.7598 96.9892 38.4567Z" fill="white"/>
<path d="M96.9892 38.4568H93.4674C93.3056 38.457 93.1506 38.523 93.0362 38.6403C92.9218 38.7576 92.8574 38.9166 92.8572 39.0824V45.0942C92.8574 45.2601 92.9218 45.4191 93.0362 45.5364C93.1506 45.6536 93.3056 45.7196 93.4674 45.7199H96.7505C96.8698 44.6034 96.9467 43.475 96.981 42.3344V42.333C96.9932 41.9034 96.9995 41.4719 97 41.0386V39.3702C97 39.0643 96.9973 38.7599 96.9892 38.4568Z" fill="#CCCCCC"/>
<path d="M96.981 42.3344C96.9471 43.4745 96.8703 44.603 96.7505 45.7199C96.718 46.0313 96.6814 46.3413 96.6406 46.65H94.5496L94.8316 46.1509H91.9893L92.8572 44.609L93.462 43.5343L94.7015 41.3347C94.7251 41.2923 94.7592 41.257 94.8004 41.2325C94.8416 41.2079 94.8884 41.195 94.9361 41.195C94.9837 41.195 95.0305 41.2079 95.0717 41.2325C95.1129 41.257 95.1471 41.2923 95.1707 41.3347L96.3572 43.4411L96.981 42.3344Z" fill="white"/>
<path d="M86.706 11.2437H62.1487V9.86863H85.4883C85.9032 10.3177 86.3091 10.7761 86.706 11.2437Z" fill="#E6E6E6"/>
<path d="M75.1929 1.70735C76.1937 2.27182 77.1691 2.87662 78.1193 3.52174V10.2426H75.1929V1.70735Z" fill="#E6E6E6"/>
<path d="M78.1186 6.24344H75.1928V7.61833H78.1186V6.24344Z" fill="#CCCCCC"/>
<path d="M82.6296 7.05322V10.2426H79.7032V4.6521C80.3854 5.16236 81.0521 5.69301 81.7034 6.24404C82.0153 6.5082 82.324 6.77793 82.6296 7.05322Z" fill="#E6E6E6"/>
<path d="M82.6296 7.05318V7.61766H79.7032V6.244H81.7034C82.0153 6.50817 82.324 6.77789 82.6296 7.05318Z" fill="#CCCCCC"/>
<path d="M72.2054 0.175191C72.9797 0.5325 73.7409 0.913452 74.489 1.31805L73.8869 2.56379L71.8867 6.70838L71.2915 7.94022L70.3598 9.86862L70.155 10.2927L69.321 9.86862L67.5337 8.96073L68.6687 6.60828H68.6701L69.2641 5.37644L71.2657 1.23185L71.8542 0.0139118L71.861 7.62939e-06L72.2054 0.175191Z" fill="#E6E6E6"/>
<path d="M74.4822 1.33058L73.8869 2.5638L71.2656 1.23186L71.8542 0.0139263L71.8609 2.28882e-05L72.2054 0.175205L74.4822 1.33058Z" fill="#CCCCCC"/>
<path d="M69.2641 5.37688L68.6691 6.60903L71.2912 7.93999L71.8862 6.70784L69.2641 5.37688Z" fill="#CCCCCC"/>
<path d="M96.505 47.6149C96.482 47.7748 96.4562 47.9361 96.4291 48.0946C96.3817 48.3949 96.3301 48.6924 96.2745 48.9899H62.1487V47.6149H96.505Z" fill="#E6E6E6"/>
<path d="M78.1186 36.1161H75.1928V47.9901H78.1186V36.1161Z" fill="#E6E6E6"/>
<path d="M78.1186 37.9909H75.1928V39.3658H78.1186V37.9909Z" fill="#CCCCCC"/>
<path d="M78.1186 43.9904H75.1928V45.3653H78.1186V43.9904Z" fill="#CCCCCC"/>
<path d="M82.6293 36.1161H79.7035V47.9901H82.6293V36.1161Z" fill="#E6E6E6"/>
<path d="M82.6293 37.9909H79.7035V39.3658H82.6293V37.9909Z" fill="#CCCCCC"/>
<path d="M82.6293 43.9904H79.7035V45.3653H82.6293V43.9904Z" fill="#CCCCCC"/>
<path d="M72.6718 36.067L67.5332 46.7082L70.1553 48.0392L75.2939 37.3979L72.6718 36.067Z" fill="#E6E6E6"/>
<path d="M71.8604 37.7472L71.2654 38.9793L73.8875 40.3103L74.4825 39.0781L71.8604 37.7472Z" fill="#CCCCCC"/>
<path d="M69.2641 43.1238L68.6691 44.356L71.2912 45.6869L71.8862 44.4548L69.2641 43.1238Z" fill="#CCCCCC"/>
<path d="M39.7058 52.9137C39.8281 52.9859 39.9447 53.0678 40.0544 53.1587L52.1274 49.3067L52.8082 46.2357L57.463 46.6833L56.7731 52.24C56.7173 52.6889 56.5211 53.1071 56.2138 53.432C55.9064 53.7568 55.5046 53.9706 55.0687 54.0414L40.8606 56.3477C40.6533 56.8628 40.298 57.3009 39.8419 57.6039C39.3858 57.9069 38.8505 58.0604 38.3073 58.0438C37.764 58.0273 37.2386 57.8416 36.8008 57.5115C36.363 57.1813 36.0336 56.7223 35.8565 56.1955C35.6793 55.6687 35.6628 55.0991 35.8091 54.5625C35.9554 54.0259 36.2576 53.5476 36.6754 53.1913C37.0933 52.8351 37.6071 52.6177 38.1484 52.5681C38.6897 52.5185 39.233 52.6391 39.7058 52.9137Z" fill="#EDB99C"/>
<path d="M59.6141 48.5256L59.5341 47.1241V47.1227L59.5124 46.739L59.2765 42.6125C59.3471 41.7522 59.0823 40.8983 58.5402 40.2377C57.9981 39.5772 57.2228 39.1637 56.384 39.088C56.1427 39.0658 55.8997 39.0723 55.6598 39.1074C54.9473 39.2107 54.2898 39.5578 53.7938 40.0923C53.2978 40.6268 52.9924 41.3174 52.9273 42.0522L52.4378 44.1405L51.5821 47.7929C51.5215 48.0484 51.5466 48.3174 51.6534 48.5566C51.7601 48.7957 51.9424 48.991 52.1706 49.1109C52.3024 49.182 52.4467 49.2255 52.5951 49.2388L54.0217 49.3695L55.3954 49.4946L56.9806 49.6392L57.0946 49.649L57.3875 49.6768L58.3679 49.7658H58.3706C58.5344 49.7793 58.6991 49.757 58.8538 49.7005C59.0086 49.6439 59.1499 49.5543 59.2684 49.4376C59.3547 49.3514 59.4274 49.252 59.484 49.1429C59.5829 48.9537 59.628 48.7398 59.6141 48.5256V48.5256Z" fill="#FFCC00"/>
<path d="M72.8625 31.5318C72.8625 36.2903 68.571 35.5706 63.2771 35.5706C57.9832 35.5706 53.6916 36.2903 53.6916 31.5318C53.6916 26.7734 55.7879 18.3386 63.2771 18.3386C71.0242 18.3386 72.8625 26.7734 72.8625 31.5318Z" fill="#414146"/>
<path d="M67.8059 33.6257C70.3248 31.0431 70.3248 26.856 67.8059 24.2734C65.287 21.6909 61.203 21.6909 58.6841 24.2734C56.1652 26.856 56.1652 31.0431 58.6841 33.6257C61.203 36.2083 65.287 36.2083 67.8059 33.6257Z" fill="#EDB99C"/>
<path d="M72.3247 38.3427C72.2005 38.2201 72.0687 38.1058 71.9301 38.0007C71.0531 37.3214 69.9511 37.0224 68.8612 37.1679L56.9752 38.7098C55.8864 38.8483 54.8931 39.4162 54.2058 40.2929C53.5185 41.1697 53.1913 42.2864 53.2934 43.4063C53.3273 43.7956 53.3653 44.2058 53.4073 44.6326C53.4616 45.1679 53.5226 45.7296 53.5931 46.3107C53.7097 47.2881 53.8522 48.3198 54.0217 49.3695C54.1695 50.2732 54.3376 51.1894 54.5302 52.0945C54.5858 52.3559 54.6437 52.6164 54.7037 52.8759C54.7037 52.8767 54.7037 52.8774 54.704 52.8782C54.7042 52.8789 54.7046 52.8795 54.7051 52.8801C54.7119 52.9121 54.7186 52.944 54.7268 52.9746C54.7264 52.977 54.7269 52.9795 54.7282 52.9816C54.8123 53.3431 54.9004 53.7004 54.9926 54.0535C55.0279 54.1842 55.0618 54.3135 55.097 54.4414C55.1919 54.789 55.2923 55.1296 55.3954 55.4647C56.1697 57.9576 57.1935 60.0806 58.5455 61.2096C58.5632 61.2263 58.5808 61.2402 58.5998 61.2555L58.6541 61.2986L58.7327 61.2735L59.0663 61.172L59.351 61.0831L63.0613 59.9388L63.9848 59.6538L66.9519 58.7376H66.9533L69.6668 57.9006L69.9977 57.7977L72.3288 57.0789L72.4033 56.1863L72.5037 55.0017L72.5634 54.2899L73.0353 48.6757L73.3106 45.4001L73.6089 41.8436C73.6643 41.1987 73.5777 40.5492 73.3554 39.9433C73.1331 39.3373 72.7809 38.7903 72.3247 38.3427Z" fill="#414146"/>
<path d="M78.9709 65.5085C78.9397 65.4154 78.9098 65.3222 78.8787 65.2305C77.4846 61.0594 75.4288 57.9048 72.4034 56.1863C72.402 56.1863 72.402 56.1849 72.4006 56.1849L72.3491 56.1557L69.7129 57.0914L69.3875 57.2068L69.0484 57.3278L69.0443 57.3292L66.5763 58.2051L66.5722 58.2065L64.6358 58.8933H64.6344L62.843 59.5287H62.8417L62.4253 59.6774L59.2941 60.7883L58.9307 60.9176L58.6052 61.033L58.555 61.0511L58.5456 61.2096L58.3218 65.2305L58.3069 65.5085L58.0276 70.5262L48.7506 84H55.097C57.2236 84.0005 59.347 83.8346 61.449 83.5037L67.4035 76.9246C67.4534 76.8716 67.5164 76.8336 67.5859 76.8147C67.6553 76.7958 67.7284 76.7967 67.7974 76.8173C67.8664 76.8379 67.9285 76.8775 67.9772 76.9317C68.0258 76.9858 68.0591 77.0526 68.0734 77.1248L68.9481 81.5739C73.2572 80.0116 77.2882 77.7376 80.8816 74.8419C80.4639 71.3869 79.8537 68.2378 78.9709 65.5085Z" fill="#414146"/>
<path d="M55.7924 28.3008H58.3436L59.4691 25.0698L59.6941 28.3008H60.9135L61.57 26.4161L61.7013 28.3008H70.7615C70.7615 27.3815 70.5849 26.4712 70.2418 25.6218C69.8986 24.7725 69.3957 24.0008 68.7617 23.3507C68.1276 22.7007 67.3749 22.185 66.5465 21.8332C65.7181 21.4814 64.8302 21.3003 63.9335 21.3003H62.6204C60.8095 21.3003 59.0728 22.0379 57.7923 23.3507C56.5118 24.6636 55.7924 26.4442 55.7924 28.3008Z" fill="#414146"/>
<path d="M40.1006 63.3378C39.6841 63.5173 39.2343 63.6009 38.7829 63.5828C38.3315 63.5647 37.8894 63.4453 37.4879 63.2331C37.0863 63.0209 36.735 62.721 36.4587 62.3546C36.1824 61.9881 35.9878 61.564 35.8887 61.1121L24.9769 59.8451L28.6347 55.3543L38.4359 57.246C39.1874 57.1255 39.9559 57.2919 40.5957 57.7136C41.2355 58.1353 41.7023 58.7829 41.9075 59.5338C42.1126 60.2847 42.042 61.0867 41.709 61.7878C41.376 62.4889 40.8037 63.0404 40.1006 63.3379L40.1006 63.3378Z" fill="#EDB99C"/>
<path d="M34.2176 55.0254L29.6055 54.1801L29.2706 54.1189C29.0029 54.0699 28.7484 53.9634 28.5238 53.8063C28.2991 53.6493 28.1094 53.4453 27.9671 53.2078C27.8248 52.9702 27.7332 52.7045 27.6982 52.4281C27.6632 52.1516 27.6856 51.8707 27.764 51.6038L30.0286 43.8888L30.0964 43.6594C30.3792 42.6788 30.3288 41.6288 29.9536 40.6814C29.5784 39.734 28.9006 38.9452 28.0311 38.4443C27.4426 38.1092 26.7866 37.9178 26.1141 37.885C25.4417 37.8522 24.7709 37.9789 24.154 38.2552C23.5371 38.5315 22.9907 38.9499 22.5572 39.478C22.1238 40.0061 21.815 40.6296 21.6548 41.3L18.7664 53.3862L18.6592 53.8339C18.4575 54.6772 18.4355 55.5553 18.5947 56.4081C18.754 57.2609 19.0907 58.0686 19.582 58.7759C20.0733 59.4832 20.7076 60.0736 21.4416 60.5068C22.1756 60.9399 22.9921 61.2058 23.8354 61.2861C23.8449 61.2875 23.853 61.2875 23.8626 61.2889L25.5916 61.446L27.8345 61.6504L30.6552 61.9076L33.2873 62.1481C33.6321 62.1802 33.976 62.0781 34.2508 61.8623C34.5256 61.6465 34.7113 61.3326 34.7709 60.983C34.7749 60.9635 34.7776 60.9441 34.7803 60.9246L35.3391 56.6479L35.3445 56.609C35.3927 56.2469 35.3022 55.8797 35.0921 55.5845C34.882 55.2893 34.5686 55.0889 34.2176 55.0254Z" fill="#CCCCCC"/>
<path d="M27.1118 22.621C25.2707 26.3322 23.8197 30.16 19.7586 30.16C17.8084 30.16 15.9381 29.3657 14.5591 27.9519C13.1801 26.538 12.4054 24.6205 12.4054 22.621C12.4054 18.4573 15.6978 15.1341 19.7586 15.082C23.8858 15.029 30.5387 15.7133 27.1118 22.621Z" fill="#414146"/>
<path d="M31.7304 71.1714L31.5636 69.464L31.4388 69.471L9.51233 70.5541L9.56927 72.2822L9.66562 75.2423C13.0584 77.892 16.8261 79.9948 20.8383 81.4779L20.9808 80.3462C20.9932 80.254 21.0363 80.169 21.1029 80.1056C21.1694 80.0423 21.2553 80.0045 21.3459 79.9986C21.4365 79.9927 21.5264 80.0191 21.6002 80.0733C21.674 80.1275 21.7273 80.2063 21.751 80.2961L22.1835 81.9492C25.6787 83.1049 29.3082 83.7786 32.9766 83.9527L31.7304 71.1714Z" fill="#414146"/>
<path d="M24.6814 28.3699C27.2003 25.7874 27.2003 21.6002 24.6814 19.0177C22.1625 16.4351 18.0785 16.4351 15.5595 19.0177C13.0406 21.6002 13.0406 25.7874 15.5595 28.3699C18.0785 30.9525 22.1625 30.9525 24.6814 28.3699Z" fill="#EDB99C"/>
<path d="M32.9903 69.5795L31.7115 65.5086L31.6897 65.439L31.6247 65.2305L31.2599 64.0709C31.1419 63.6942 31.0293 63.316 30.9249 62.9364C30.8286 62.5944 30.7387 62.2515 30.6551 61.9076C30.5357 61.4293 30.4273 60.9492 30.3296 60.4672C29.9987 58.8475 29.778 57.2062 29.6692 55.5551C29.6393 55.0977 29.6181 54.6394 29.6054 54.1801C29.526 51.365 29.7732 48.5502 30.3418 45.795C30.8368 43.4124 30.5724 40.9298 29.5876 38.7128C28.6027 36.4959 26.9495 34.6618 24.8714 33.4807C23.5077 32.7081 21.9984 32.2439 20.4451 32.1196C20.338 32.1113 20.2308 32.1043 20.1224 32.0974C18.4815 31.9911 16.8383 32.2639 15.3141 32.8959C13.7899 33.5278 12.4236 34.5026 11.316 35.7484C10.7228 36.4109 10.2075 37.1426 9.78085 37.9284C8.59706 40.1152 8.15266 42.6422 8.51701 45.1151L10.0412 55.608L9.69411 60.0251L9.28458 65.2305L9.26286 65.5086L8.82617 71.0588C8.80549 71.3175 8.86658 71.5762 9.00042 71.7965C9.13426 72.0169 9.33372 72.1872 9.5693 72.2823C9.70728 72.3389 9.85464 72.3677 10.0033 72.3671C10.025 72.3671 10.0453 72.3671 10.067 72.3657L31.7305 71.1714L31.9285 71.1603C32.1092 71.1507 32.2853 71.0986 32.4432 71.008C32.6011 70.9175 32.7367 70.7909 32.8393 70.6381C32.9419 70.4853 33.0089 70.3104 33.0351 70.1268C33.0613 69.9433 33.0459 69.756 32.9903 69.5795L32.9903 69.5795Z" fill="#CCCCCC"/>
<path d="M26.9651 19.9565C25.4911 20.998 23.7416 21.5523 21.9515 21.545C22.5901 21.999 23.317 22.3056 24.0823 22.4438C21.7022 22.9672 19.2424 22.9814 16.8567 22.4854C16.3264 22.3982 15.8147 22.218 15.3441 21.9528C14.886 21.6677 14.5028 21.2137 14.4104 20.6725C14.2519 19.744 14.9576 18.9005 15.691 18.3319C16.8138 17.4748 18.1084 16.8842 19.4812 16.603C20.8539 16.3217 22.2705 16.3568 23.6284 16.7058C24.515 16.9407 25.4033 17.3378 25.9792 18.0678C26.5551 18.7978 26.7257 19.9233 26.177 20.6751L26.9651 19.9565Z" fill="#414146"/>
<path d="M27.2949 61.9622C26.8823 62.1508 26.4343 62.2444 25.9826 62.2363C25.5309 62.2282 25.0865 62.1187 24.6805 61.9155C24.2745 61.7122 23.917 61.4202 23.633 61.06C23.3491 60.6997 23.1456 60.28 23.0369 59.8304L12.101 58.8059L15.663 54.235L25.5019 55.9086C26.2507 55.7716 27.0225 55.9209 27.6711 56.3282C28.3197 56.7356 28.8 57.3727 29.021 58.1189C29.242 58.8651 29.1883 59.6685 28.8702 60.3768C28.5521 61.0851 27.9916 61.6492 27.2949 61.9622L27.2949 61.9622Z" fill="#EDB99C"/>
<path d="M21.2384 53.7824L18.7663 53.3862L16.2724 52.9858C16.0039 52.9427 15.7472 52.8419 15.5193 52.69C15.2914 52.538 15.0974 52.3384 14.9502 52.1041C14.8029 51.8699 14.7056 51.6063 14.6647 51.3308C14.6238 51.0552 14.6403 50.774 14.7129 50.5054L16.8772 42.511C17.1392 41.5243 17.0666 40.4757 16.6714 39.5369C16.2763 38.598 15.5819 37.8246 14.7021 37.3431C14.1077 37.018 13.4477 36.8393 12.7742 36.8212C12.1008 36.8031 11.4325 36.9461 10.8224 37.2388C10.2103 37.5269 9.67189 37.9568 9.24948 38.4946C8.82707 39.0324 8.53222 39.6633 8.38816 40.3378L5.65838 52.9357C5.47449 53.7855 5.47183 54.666 5.65059 55.5169C5.82934 56.3678 6.18529 57.1692 6.69408 57.866C7.20287 58.5628 7.85248 59.1387 8.59847 59.5543C9.34446 59.9699 10.1692 60.2154 11.0163 60.2739L20.4587 60.9232C20.804 60.9473 21.1455 60.8377 21.4157 60.6161C21.6859 60.3944 21.8651 60.0768 21.9178 59.7261C21.9219 59.7066 21.9232 59.6872 21.9259 59.6677L22.3938 55.3799L22.3979 55.341C22.4382 54.978 22.34 54.6131 22.1239 54.3226C21.9078 54.0321 21.5905 53.8385 21.2384 53.7824Z" fill="#CCCCCC"/>
<path d="M63.0705 47.1366L62.5046 47.4531L55.5327 51.3532L54.9668 51.6698C54.6923 51.8238 54.4885 52.0832 54.4002 52.3911C54.3119 52.6989 54.3464 53.0301 54.496 53.312L59.6877 63.0677C59.8379 63.3492 60.091 63.5582 60.3912 63.6487C60.6915 63.7392 61.0146 63.7039 61.2895 63.5505L61.2909 63.5497L69.3916 59.0181L69.3931 59.0173C69.6677 58.8633 69.8715 58.6039 69.9597 58.296C70.048 57.9881 70.0136 57.6569 69.864 57.375L64.6722 47.6193C64.522 47.3378 64.269 47.1289 63.9687 47.0384C63.6684 46.9479 63.3454 46.9832 63.0705 47.1366Z" fill="#E6E6E6"/>
<path d="M63.2332 47.4424L62.563 47.8174L55.7999 51.6007L55.1296 51.9756C54.9341 52.0853 54.789 52.27 54.7261 52.4893C54.6632 52.7085 54.6878 52.9444 54.7943 53.1451L59.9861 62.9008C60.093 63.1013 60.2732 63.25 60.487 63.3145C60.7009 63.3789 60.9309 63.3538 61.1267 63.2446L61.1282 63.2438L69.2289 58.7122L69.2303 58.7114C69.4259 58.6017 69.571 58.417 69.6338 58.1977C69.6967 57.9785 69.6722 57.7426 69.5657 57.5419L64.3739 47.7862C64.2669 47.5857 64.0867 47.4369 63.8729 47.3725C63.6591 47.308 63.429 47.3332 63.2332 47.4424Z" fill="white"/>
<path d="M63.4234 50.1967C63.3982 50.1499 63.356 50.1152 63.306 50.1001C63.256 50.085 63.2021 50.0907 63.1562 50.1161L62.8864 50.2677L60.1349 51.8067C60.0894 51.8325 60.0556 51.8758 60.0411 51.927C60.0265 51.9782 60.0323 52.0332 60.0572 52.0801C60.0821 52.1269 60.1241 52.1617 60.174 52.1769C60.2238 52.1922 60.2775 52.1865 60.3234 52.1613L63.3447 50.4706C63.3904 50.4448 63.4243 50.4016 63.439 50.3503C63.4537 50.299 63.4481 50.2438 63.4234 50.1967Z" fill="#E6E6E6"/>
<path d="M64.4527 50.3956C64.4404 50.3724 64.4238 50.3519 64.4037 50.3354C64.3837 50.3188 64.3606 50.3065 64.3359 50.2991C64.3112 50.2917 64.2853 50.2895 64.2597 50.2924C64.2341 50.2954 64.2094 50.3035 64.1869 50.3164L60.4535 52.4046C60.4309 52.4173 60.411 52.4345 60.3948 52.4551C60.3787 52.4757 60.3666 52.4993 60.3594 52.5247C60.3521 52.5501 60.3498 52.5766 60.3526 52.6029C60.3554 52.6292 60.3632 52.6547 60.3756 52.6778C60.388 52.701 60.4047 52.7215 60.4248 52.7381C60.4448 52.7546 60.4679 52.767 60.4927 52.7744C60.5174 52.7818 60.5433 52.7842 60.569 52.7813C60.5946 52.7785 60.6194 52.7705 60.6421 52.7578L60.8157 52.6605L61.9019 52.0529H61.9033L64.374 50.6695C64.3969 50.657 64.4171 50.6399 64.4335 50.6193C64.4498 50.5987 64.462 50.575 64.4694 50.5495C64.4767 50.524 64.479 50.4972 64.4761 50.4708C64.4732 50.4444 64.4653 50.4188 64.4527 50.3956Z" fill="#E6E6E6"/>
<path d="M60.3953 53.724L59.2101 51.4953C59.1978 51.4729 59.1773 51.4564 59.1532 51.4494C59.1291 51.4424 59.1033 51.4454 59.0813 51.4578L58.5063 51.779L58.208 51.9458L56.6065 52.8412L56.2959 53.015C56.2741 53.0276 56.258 53.0486 56.2511 53.0733C56.2443 53.098 56.2472 53.1245 56.2593 53.147L56.3352 53.2903L57.4445 55.3758C57.4566 55.398 57.4767 55.4145 57.5006 55.4215C57.5245 55.4285 57.5502 55.4256 57.5719 55.4133L59.484 54.3441L59.7824 54.1773L60.3573 53.8561C60.3683 53.8501 60.3781 53.8418 60.3859 53.8319C60.3938 53.8219 60.3997 53.8105 60.4032 53.7982C60.4068 53.7859 60.4079 53.773 60.4065 53.7603C60.4052 53.7476 60.4014 53.7353 60.3953 53.724Z" fill="#E6E6E6"/>
<path d="M64.9219 53.0247C64.897 52.9779 64.8551 52.9432 64.8053 52.9281C64.7554 52.9129 64.7018 52.9187 64.6561 52.9441L60.558 55.2367C60.5218 55.2571 60.4928 55.2885 60.475 55.3267C60.4573 55.3649 60.4517 55.4078 60.459 55.4495C60.4619 55.471 60.4688 55.4918 60.4794 55.5106C60.4898 55.5298 60.503 55.5472 60.5187 55.5621L60.5201 55.5635C60.5504 55.5914 60.5885 55.6091 60.629 55.6141C60.6695 55.6191 60.7106 55.6111 60.7465 55.5913L64.8446 53.2986C64.8673 53.2859 64.8873 53.2687 64.9034 53.248C64.9196 53.2273 64.9316 53.2036 64.9388 53.1781C64.9459 53.1527 64.9481 53.126 64.9453 53.0997C64.9424 53.0734 64.9344 53.0479 64.9219 53.0247Z" fill="#E6E6E6"/>
<path d="M65.9525 53.2235C65.9401 53.2003 65.9233 53.1799 65.9031 53.1633C65.8829 53.1468 65.8598 53.1345 65.8349 53.1271C65.8101 53.1198 65.7841 53.1175 65.7585 53.1204C65.7328 53.1234 65.708 53.1315 65.6853 53.1443L60.8754 55.8346C60.8392 55.8541 60.8101 55.8851 60.7923 55.9229C60.7744 55.9606 60.7689 56.0032 60.7764 56.0445V56.0459C60.7792 56.0674 60.7861 56.0882 60.7967 56.1071C60.8072 56.127 60.8209 56.1448 60.8374 56.1599C60.8674 56.1885 60.9055 56.2065 60.9462 56.2115C60.9869 56.2165 61.028 56.2082 61.0638 56.1877L65.8739 53.4974C65.9196 53.4717 65.9535 53.4284 65.9683 53.3771C65.983 53.3258 65.9774 53.2706 65.9525 53.2235Z" fill="#E6E6E6"/>
<path d="M59.1854 57.4683C59.646 57.4683 60.0195 57.0855 60.0195 56.6132C60.0195 56.141 59.646 55.7581 59.1854 55.7581C58.7248 55.7581 58.3514 56.141 58.3514 56.6132C58.3514 57.0855 58.7248 57.4683 59.1854 57.4683Z" fill="#E6E6E6"/>
<path d="M65.5114 43.3827L64.9455 43.6992L57.9737 47.5993L57.4078 47.9159C57.1332 48.0699 56.9294 48.3293 56.8411 48.6372C56.7529 48.945 56.7873 49.2762 56.9369 49.5581L62.1287 59.3138C62.2789 59.5953 62.5319 59.8042 62.8322 59.8947C63.1325 59.9853 63.4555 59.9499 63.7304 59.7966L63.7319 59.7957L71.8326 55.2642L71.834 55.2634C72.1086 55.1093 72.3124 54.8499 72.4007 54.5421C72.489 54.2342 72.4545 53.903 72.3049 53.6211L67.1132 43.8655C66.9629 43.5839 66.7099 43.375 66.4097 43.2845C66.1094 43.194 65.7863 43.2293 65.5114 43.3827Z" fill="#CCCCCC"/>
<path d="M65.6742 43.6885L65.0039 44.0635L58.2408 47.8468L57.5706 48.2217C57.375 48.3314 57.2299 48.5161 57.167 48.7354C57.1042 48.9546 57.1287 49.1905 57.2352 49.3912L62.427 59.1469C62.534 59.3474 62.7142 59.4962 62.928 59.5606C63.1418 59.6251 63.3719 59.5999 63.5677 59.4907L63.5691 59.4899L71.6698 54.9583L71.6713 54.9575C71.8668 54.8478 72.0119 54.6631 72.0748 54.4438C72.1377 54.2246 72.1132 53.9888 72.0066 53.788L66.8148 44.0323C66.7079 43.8319 66.5277 43.6831 66.3139 43.6186C66.1 43.5542 65.87 43.5793 65.6742 43.6885Z" fill="white"/>
<path d="M65.8644 46.4428C65.8392 46.396 65.797 46.3613 65.747 46.3462C65.697 46.3311 65.6431 46.3368 65.5972 46.3622L64.2059 47.1408L63.818 47.3577L62.5759 48.0529C62.5304 48.0787 62.4966 48.1219 62.4821 48.1731C62.4675 48.2243 62.4733 48.2793 62.4982 48.3262C62.5231 48.373 62.5651 48.4078 62.6149 48.4231C62.6648 48.4383 62.7185 48.4326 62.7643 48.4074L64.229 47.5885L64.5354 47.4161L65.7857 46.7167C65.8314 46.6909 65.8653 46.6477 65.88 46.5964C65.8947 46.5451 65.8891 46.4899 65.8644 46.4428Z" fill="#CCCCCC"/>
<path d="M66.8936 46.6417C66.8814 46.6185 66.8647 46.598 66.8447 46.5814C66.8246 46.5649 66.8016 46.5525 66.7769 46.5452C66.7522 46.5378 66.7263 46.5355 66.7007 46.5385C66.6751 46.5415 66.6503 46.5496 66.6278 46.5624L64.6873 47.6483L64.3889 47.8151L62.8945 48.6507C62.8719 48.6634 62.8519 48.6805 62.8358 48.7011C62.8196 48.7217 62.8076 48.7454 62.8003 48.7708C62.7931 48.7961 62.7908 48.8227 62.7936 48.849C62.7964 48.8753 62.8042 48.9007 62.8166 48.9239C62.8289 48.9471 62.8456 48.9676 62.8657 48.9841C62.8858 49.0007 62.9089 49.0131 62.9336 49.0205C62.9584 49.0279 62.9843 49.0303 63.01 49.0274C63.0356 49.0246 63.0604 49.0166 63.083 49.0039L64.5774 48.1683L64.8758 48.0014L66.815 46.9156C66.8378 46.9031 66.8581 46.886 66.8744 46.8654C66.8908 46.8448 66.903 46.821 66.9103 46.7955C66.9177 46.77 66.9199 46.7433 66.9171 46.7169C66.9142 46.6905 66.9063 46.6649 66.8936 46.6417Z" fill="#CCCCCC"/>
<path d="M62.8362 49.9702L61.891 48.1933L61.7283 47.8874L61.651 47.7415C61.6387 47.7191 61.6182 47.7026 61.5941 47.6955C61.57 47.6885 61.5441 47.6915 61.5222 47.7039L59.6033 48.7772L58.7368 49.2611C58.7149 49.2737 58.6988 49.2947 58.692 49.3194C58.6851 49.3441 58.6881 49.3706 58.7002 49.3932L58.7774 49.5378L58.8615 49.6977L58.9402 49.8436V49.845L59.8853 51.6219C59.8974 51.6441 59.9176 51.6606 59.9415 51.6676C59.9654 51.6747 59.991 51.6717 60.0128 51.6594L62.7982 50.1022C62.8092 50.0962 62.8189 50.0879 62.8268 50.078C62.8347 50.0681 62.8406 50.0566 62.8441 50.0443C62.8476 50.032 62.8488 50.0192 62.8474 50.0064C62.8461 49.9937 62.8423 49.9814 62.8362 49.9702Z" fill="#FFCC00"/>
<path d="M67.3628 49.2708C67.338 49.224 67.296 49.1893 67.2462 49.1741C67.1964 49.159 67.1427 49.1648 67.097 49.1901L65.8725 49.8756L65.5742 50.0424L64.3917 50.7028L62.999 51.4828C62.9763 51.4955 62.9562 51.5127 62.94 51.5333C62.9237 51.5539 62.9116 51.5776 62.9043 51.6031C62.897 51.6285 62.8947 51.6552 62.8974 51.6815C62.9002 51.7079 62.9079 51.7334 62.9203 51.7567C62.9327 51.78 62.9494 51.8006 62.9696 51.8172C62.9897 51.8339 63.0128 51.8463 63.0376 51.8538C63.0624 51.8613 63.0884 51.8637 63.1141 51.8608C63.1398 51.858 63.1648 51.85 63.1875 51.8374L65.7627 50.397L66.061 50.2301L67.2856 49.5447C67.3082 49.5319 67.3282 49.5147 67.3443 49.4941C67.3605 49.4734 67.3725 49.4496 67.3797 49.4242C67.3869 49.3987 67.3891 49.3721 67.3862 49.3458C67.3833 49.3194 67.3754 49.294 67.3628 49.2708Z" fill="#CCCCCC"/>
<path d="M68.3935 49.4696C68.381 49.4465 68.3642 49.426 68.3441 49.4095C68.3239 49.3929 68.3007 49.3806 68.2759 49.3733C68.2511 49.3659 68.2251 49.3636 68.1994 49.3666C68.1738 49.3695 68.1489 49.3776 68.1263 49.3904L66.1912 50.4735L65.8929 50.6403L63.3163 52.0807C63.2936 52.0933 63.2735 52.1104 63.2572 52.131C63.2409 52.1516 63.2288 52.1753 63.2215 52.2007C63.2141 52.2262 63.2118 52.2528 63.2146 52.2792C63.2173 52.3055 63.2251 52.3311 63.2375 52.3543C63.2499 52.3776 63.2667 52.3981 63.2869 52.4147C63.307 52.4313 63.3302 52.4436 63.355 52.451C63.3799 52.4584 63.4059 52.4607 63.4316 52.4577C63.4573 52.4548 63.4821 52.4467 63.5048 52.4338L66.08 50.9935L66.3784 50.8266L68.3148 49.7435C68.3606 49.7178 68.3945 49.6745 68.4093 49.6232C68.424 49.5719 68.4183 49.5167 68.3935 49.4696Z" fill="#CCCCCC"/>
<path d="M61.6264 53.7144C62.087 53.7144 62.4604 53.3316 62.4604 52.8593C62.4604 52.3871 62.087 52.0042 61.6264 52.0042C61.1657 52.0042 60.7923 52.3871 60.7923 52.8593C60.7923 53.3316 61.1657 53.7144 61.6264 53.7144Z" fill="#CCCCCC"/>
<path d="M62.1866 57.6668C62.327 57.681 62.4661 57.7065 62.6026 57.7431L72.0613 49.1402L71.4497 46.054L75.872 44.4988L77.4726 49.8546C77.602 50.2872 77.5909 50.7512 77.4411 51.1769C77.2913 51.6026 77.0109 51.9669 76.6419 52.2153L64.617 60.3097C64.6347 60.8666 64.4866 61.4159 64.1925 61.8844C63.8983 62.3529 63.472 62.7185 62.9702 62.9326C62.4684 63.1467 61.915 63.199 61.3835 63.0827C60.852 62.9664 60.3676 62.687 59.9948 62.2815C59.622 61.8761 59.3784 61.3639 59.2964 60.8131C59.2144 60.2623 59.298 59.6989 59.5359 59.1979C59.7739 58.697 60.1549 58.2821 60.6284 58.0086C61.1019 57.7351 61.6454 57.6159 62.1866 57.6668Z" fill="#EDB99C"/>
<path d="M78.5722 45.2694L75.8926 40.0223C75.6168 39.2242 75.0494 38.5673 74.31 38.1901C73.5707 37.8129 72.7174 37.745 71.9301 38.0007C71.9003 38.0091 71.8718 38.0188 71.842 38.0299C71.0442 38.3158 70.3897 38.9146 70.0221 39.6947C69.6544 40.4749 69.6037 41.3727 69.881 42.1912L70.9564 47.9903C70.9872 48.1563 71.0526 48.3135 71.1481 48.4513C71.2436 48.589 71.3669 48.704 71.5097 48.7884C71.6658 48.882 71.8417 48.9354 72.0223 48.9441C72.1709 48.9537 72.3199 48.9324 72.4603 48.8815L73.0353 48.6757L76.7266 47.3577L77.9335 46.9267C78.0892 46.8709 78.2313 46.7813 78.3502 46.6642C78.4691 46.5471 78.562 46.4051 78.6226 46.2478C78.6832 46.0906 78.71 45.9218 78.7013 45.753C78.6927 45.5842 78.6486 45.4192 78.5722 45.2694Z" fill="#FFCC00"/>
<path d="M88.6878 65.5085H0.135608C0.0996427 65.5085 0.0651501 65.4939 0.0397186 65.4678C0.0142871 65.4417 0 65.4064 0 65.3695C0 65.3326 0.0142871 65.2973 0.0397186 65.2712C0.0651501 65.2451 0.0996427 65.2305 0.135608 65.2305H88.6878C88.7237 65.2305 88.7582 65.2451 88.7837 65.2712C88.8091 65.2973 88.8234 65.3326 88.8234 65.3695C88.8234 65.4064 88.8091 65.4417 88.7837 65.4678C88.7582 65.4939 88.7237 65.5085 88.6878 65.5085Z" fill="#86868B"/>
<path d="M15.391 62.9364V63.0059C15.3915 63.4773 15.5254 63.9384 15.7765 64.3333C16.0275 64.7281 16.385 65.0398 16.8054 65.2305C17.107 65.3687 17.4338 65.4398 17.7642 65.439H39.6649V62.9364H15.391Z" fill="#86868B"/>
<path d="M54.956 46.4429C54.6085 45.7073 54.0734 45.0818 53.4074 44.6326C53.1055 44.4277 52.7798 44.2624 52.4378 44.1405C51.9718 43.9736 51.4817 43.8886 50.9881 43.8888H29.9689C28.8004 43.8902 27.6802 44.3667 26.8539 45.2138C26.0277 46.0609 25.5629 47.2094 25.5616 48.4074V60.9205C25.5612 61.0961 25.5712 61.2716 25.5915 61.446C25.6212 61.7068 25.6729 61.9645 25.746 62.2162C25.8185 62.4642 25.9119 62.7052 26.0254 62.9364C26.3904 63.6885 26.9529 64.3212 27.6496 64.7633C28.3463 65.2054 29.1495 65.4395 29.9689 65.439H50.9881C51.567 65.4393 52.1402 65.3225 52.675 65.0955C53.2098 64.8685 53.6957 64.5357 54.105 64.1161C54.5143 63.6964 54.839 63.1982 55.0604 62.6499C55.2818 62.1016 55.3956 61.5139 55.3954 60.9205V48.4074C55.3964 47.7268 55.2461 47.055 54.956 46.4429Z" fill="#86868B"/>
<path d="M41.6312 55.7762C42.2303 55.7762 42.716 55.2782 42.716 54.6639C42.716 54.0496 42.2303 53.5516 41.6312 53.5516C41.032 53.5516 40.5463 54.0496 40.5463 54.6639C40.5463 55.2782 41.032 55.7762 41.6312 55.7762Z" fill="white"/>
</g>
<defs>
<clipPath id="clip0_1_103">
<rect width="97" height="84" fill="white"/>
</clipPath>
</defs>
</svg>
